<?xml version="1.0" encoding="utf-8"?>
<!-- Generator: Adobe Illustrator 22.0.1, SVG Export Plug-In . SVG Version: 6.00 Build 0)  -->
<svg version="1.1" id="Layer_1" xmlns="http://www.w3.org/2000/svg" xmlns:xlink="http://www.w3.org/1999/xlink" x="0px" y="0px"
	 viewBox="0 0 769.5 656.5" style="enable-background:new 0 0 769.5 656.5;" xml:space="preserve">
<style type="text/css">
	.st0{fill:none;stroke:#C3D0E5;stroke-width:18;stroke-miterlimit:10;}
</style>
<path class="st0" d="M644.5,387.5c-24.4,130.8-128,233.8-259.1,257.4c-18.6,3.4-37.8,5.1-57.4,5.1C150.2,650,6,505.8,6,328
	S150.2,6,328,6c20.5,0,40.6,1.9,60.1,5.6C238.5,38.5,124.8,168.8,123.5,325.8c0,0.9,0,1.8,0,2.7s0,1.8,0,2.6
	c1.4,112,92.6,202.4,205,202.4c20.7,0,40.7-3.1,59.6-8.8l0,0c65.5-19.9,117.1-71.6,136.8-137.2H644.5z"/>
<path class="st0" d="M642.8,270.5H525.2c-19.6-66.6-72.1-119.1-138.8-138.7c18.9-5.7,38.9-8.8,59.6-8.8
	C539.3,123,618,185.3,642.8,270.5z"/>
<path class="st0" d="M642.8,270.5H525.2c-19.6-66.6-72.1-119.1-138.8-138.7c18.9-5.7,38.9-8.8,59.6-8.8
	C539.3,123,618,185.3,642.8,270.5z"/>
<path class="st0" d="M762.1,387.5c-27.7,149.7-158.9,263-316.6,263c-6,0-12-0.2-18-0.5c-14.3-0.8-28.4-2.5-42.1-5.1
	c131.1-23.6,234.7-126.6,259.1-257.4L762.1,387.5L762.1,387.5z"/>
<path class="st0" d="M762.3,270.5H642.8C618,185.3,539.3,123,446,123c-20.7,0-40.7,3.1-59.6,8.8l0,0C302.2,157.3,241,235.5,241,328
	c0,93.1,62.1,171.7,147.1,196.7c-18.9,5.7-38.9,8.8-59.6,8.8c-112.3,0-203.6-90.4-205-202.4c0-0.9,0-1.8,0-2.6s0-1.8,0-2.7
	c1.3-157.1,115-287.3,264.6-314.2c18.6-3.3,37.8-5.1,57.4-5.1C603.5,6.5,735,120.3,762.3,270.5z"/>
<path class="st0" d="M642.7,270.7l-117.6-0.2c-19.5-66.6-72-119.2-138.6-138.9c18.9-5.7,38.9-8.7,59.6-8.7
	C539.4,123,618,185.4,642.7,270.7z"/>
</svg>
