<?xml version="1.0" encoding="utf-8"?>
<!-- Generator: Adobe Illustrator 22.0.1, SVG Export Plug-In . SVG Version: 6.00 Build 0)  -->
<svg version="1.1" id="Layer_1" xmlns="http://www.w3.org/2000/svg" xmlns:xlink="http://www.w3.org/1999/xlink" x="0px" y="0px"
	 viewBox="0 0 512 384" style="enable-background:new 0 0 512 384;" xml:space="preserve">
<path d="M459.6,3.8H52c-26,0-47,21.1-47,47V333c0,26,21.1,47,47,47h407.6c26,0,47-21.1,47-47V50.8C506.7,24.8,485.6,3.8,459.6,3.8z
	 M459.6,50.8v40c-22,17.9-57,45.7-131.9,104.3c-16.5,13-49.2,44.2-71.9,43.8c-22.7,0.4-55.4-30.8-71.9-43.8
	C109,136.5,74,108.7,52,90.8v-40H459.6z M52,333V151.1c22.5,17.9,54.3,43,102.8,81c21.4,16.9,58.9,54.1,101,53.8
	c41.9,0.2,78.9-36.4,101-53.8c48.5-38,80.4-63.1,102.8-81V333H52z"/>
</svg>
