<svg id="Logo_FIXED" data-name="Logo FIXED" xmlns="http://www.w3.org/2000/svg" viewBox="0 0 181.22 176.74"><defs><style>.cls-1{fill:#181616;fill-rule:evenodd;}</style></defs><title>github</title><path class="cls-1" d="M90.6,0A90.61,90.61,0,0,0,62,176.58c4.53.84,6.18-2,6.18-4.36,0-2.15-.08-7.85-.12-15.41-25.2,5.47-30.52-12.15-30.52-12.15-4.12-10.47-10.06-13.25-10.06-13.25-8.23-5.62.62-5.51.62-5.51,9.09.64,13.88,9.34,13.88,9.34,8.08,13.84,21.2,9.84,26.37,7.53.82-5.86,3.16-9.85,5.75-12.12C54,128.37,32.8,120.59,32.8,85.87a35,35,0,0,1,9.32-24.31c-.93-2.29-4-11.51.89-24,0,0,7.61-2.44,24.92,9.29a85.89,85.89,0,0,1,45.37,0c17.3-11.73,24.89-9.29,24.89-9.29,4.94,12.47,1.83,21.69.9,24a34.94,34.94,0,0,1,9.31,24.31c0,34.81-21.18,42.47-41.37,44.71,3.26,2.8,6.16,8.33,6.16,16.78,0,12.11-.12,21.89-.12,24.86,0,2.42,1.64,5.24,6.23,4.35A90.62,90.62,0,0,0,90.6,0Z"/></svg>